<svg width="28" height="28" viewBox="0 0 28 28" fill="none" xmlns="http://www.w3.org/2000/svg">
<g id="discord">
<g id="Group">
<path id="Vector" d="M23.7187 4.93256C21.9062 4.08454 19.9682 3.46824 17.942 3.11731C17.6932 3.56719 17.4025 4.17229 17.2021 4.65364C15.0482 4.32973 12.9142 4.32973 10.8 4.65364C10.5996 4.17229 10.3023 3.56719 10.0513 3.11731C8.02294 3.46824 6.08272 4.08681 4.27023 4.93705C0.614417 10.4615 -0.376613 15.8486 0.118903 21.1593C2.54363 22.9701 4.89348 24.07 7.20367 24.7898C7.77407 24.0048 8.28279 23.1703 8.72104 22.2908C7.88638 21.9736 7.08695 21.5822 6.33159 21.1279C6.53198 20.9794 6.728 20.8242 6.91738 20.6645C11.5246 22.8194 16.5304 22.8194 21.0825 20.6645C21.2741 20.8242 21.4701 20.9794 21.6683 21.1279C20.9107 21.5845 20.1091 21.9758 19.2745 22.293C19.7127 23.1703 20.2192 24.007 20.7918 24.792C23.1042 24.0723 25.4563 22.9723 27.881 21.1593C28.4624 15.0029 26.8878 9.66518 23.7187 4.93256ZM9.34871 17.8933C7.96568 17.8933 6.83148 16.6022 6.83148 15.0299C6.83148 13.4576 7.94146 12.1642 9.34871 12.1642C10.756 12.1642 11.8902 13.4553 11.8659 15.0299C11.8681 16.6022 10.756 17.8933 9.34871 17.8933ZM18.6512 17.8933C17.2682 17.8933 16.134 16.6022 16.134 15.0299C16.134 13.4576 17.2439 12.1642 18.6512 12.1642C20.0584 12.1642 21.1926 13.4553 21.1684 15.0299C21.1684 16.6022 20.0584 17.8933 18.6512 17.8933Z" fill="#BFBFBF"/>
</g>
</g>
</svg>
