<svg width="28" height="28" viewBox="0 0 28 28" fill="none" xmlns="http://www.w3.org/2000/svg">
<g id="instagram">
<path id="Vector" fill-rule="evenodd" clip-rule="evenodd" d="M14 21.0001C17.866 21.0001 21 17.8661 21 14.0001C21 10.1341 17.866 7.00012 14 7.00012C10.134 7.00012 7 10.1341 7 14.0001C7 17.8661 10.134 21.0001 14 21.0001ZM14 18.6668C16.5773 18.6668 18.6667 16.5774 18.6667 14.0001C18.6667 11.4228 16.5773 9.33346 14 9.33346C11.4227 9.33346 9.33333 11.4228 9.33333 14.0001C9.33333 16.5774 11.4227 18.6668 14 18.6668Z" fill="#BFBFBF"/>
<path id="Vector_2" d="M20.9999 5.83347C20.3556 5.83347 19.8333 6.35581 19.8333 7.00013C19.8333 7.64446 20.3556 8.1668 20.9999 8.1668C21.6443 8.1668 22.1666 7.64446 22.1666 7.00013C22.1666 6.35581 21.6443 5.83347 20.9999 5.83347Z" fill="#BFBFBF"/>
<path id="Vector_3" fill-rule="evenodd" clip-rule="evenodd" d="M1.9297 4.98885C1.16675 6.48623 1.16675 8.44642 1.16675 12.3668V15.6334C1.16675 19.5538 1.16675 21.514 1.9297 23.0113C2.60081 24.3285 3.67167 25.3994 4.98882 26.0704C6.4862 26.8334 8.44639 26.8334 12.3667 26.8334H15.6334C19.5538 26.8334 21.514 26.8334 23.0113 26.0704C24.3285 25.3994 25.3993 24.3285 26.0704 23.0113C26.8334 21.514 26.8334 19.5538 26.8334 15.6334V12.3668C26.8334 8.44642 26.8334 6.48623 26.0704 4.98885C25.3993 3.67171 24.3285 2.60085 23.0113 1.92973C21.514 1.16678 19.5538 1.16678 15.6334 1.16678H12.3667C8.44639 1.16678 6.4862 1.16678 4.98882 1.92973C3.67167 2.60085 2.60081 3.67171 1.9297 4.98885ZM15.6334 3.50011H12.3667C10.3681 3.50011 9.00937 3.50193 7.95917 3.58773C6.93619 3.67131 6.41306 3.8228 6.04813 4.00874C5.17004 4.45616 4.45613 5.17007 4.00871 6.04816C3.82277 6.41309 3.67128 6.93623 3.5877 7.95921C3.5019 9.0094 3.50008 10.3681 3.50008 12.3668V15.6334C3.50008 17.6322 3.5019 18.9908 3.5877 20.041C3.67128 21.064 3.82277 21.5872 4.00871 21.9521C4.45613 22.8301 5.17004 23.544 6.04813 23.9914C6.41306 24.1774 6.93619 24.329 7.95917 24.4125C9.00937 24.4982 10.3681 24.5001 12.3667 24.5001H15.6334C17.6321 24.5001 18.9907 24.4982 20.041 24.4125C21.064 24.329 21.5871 24.1774 21.9521 23.9914C22.8301 23.544 23.544 22.8301 23.9914 21.9521C24.1774 21.5872 24.3289 21.064 24.4125 20.041C24.4982 18.9908 24.5001 17.6322 24.5001 15.6334V12.3668C24.5001 10.3681 24.4982 9.0094 24.4125 7.95921C24.3289 6.93623 24.1774 6.41309 23.9914 6.04816C23.544 5.17007 22.8301 4.45616 21.9521 4.00874C21.5871 3.8228 21.064 3.67131 20.041 3.58773C18.9907 3.50193 17.6321 3.50011 15.6334 3.50011Z" fill="#BFBFBF"/>
</g>
</svg>
