<svg width="28" height="28" viewBox="0 0 28 28" fill="none" xmlns="http://www.w3.org/2000/svg">
<g id="linkedin" clip-path="url(#clip0_149_208)">
<path id="Vector" d="M25.1808 0.878632H2.81577C2.80877 0.878632 2.80089 0.878632 2.79214 0.878632C1.74302 0.878632 0.891645 1.72213 0.879395 2.76776V25.2308C0.891645 26.2773 1.74302 27.1216 2.79214 27.1216C2.80089 27.1216 2.80877 27.1216 2.81752 27.1216H25.1781C25.1851 27.1216 25.1939 27.1216 25.2026 27.1216C26.2526 27.1216 27.1058 26.279 27.1224 25.2325V25.2308V2.76951C27.1058 1.72213 26.2526 0.878632 25.2018 0.878632C25.193 0.878632 25.1851 0.878632 25.1764 0.878632H25.1808ZM8.66252 23.2419H4.76527V10.7198H8.66252V23.2419ZM6.71477 9.00651C5.46789 9.00651 4.45814 7.99588 4.45814 6.74988C4.45814 5.50388 5.46877 4.49326 6.71477 4.49326C7.96077 4.49326 8.97139 5.50301 8.97139 6.74901C8.97139 6.74988 8.97139 6.75076 8.97139 6.75251C8.97139 7.99763 7.96164 9.00738 6.71652 9.00738C6.71564 9.00738 6.71477 9.00738 6.71389 9.00738L6.71477 9.00651ZM23.2365 23.2419H19.3506V17.1528C19.3506 15.7003 19.3209 13.8321 17.3259 13.8321C15.2994 13.8321 14.9905 15.4124 14.9905 17.046V23.2428H11.1046V10.7206H14.8374V12.4278H14.8881C15.6126 11.2071 16.9234 10.4021 18.4223 10.4021C18.4756 10.4021 18.5281 10.403 18.5806 10.4048H18.5728C22.5103 10.4048 23.2383 12.9965 23.2383 16.3696V23.2428L23.2365 23.2419Z" fill="#BFBFBF"/>
</g>
<defs>
<clipPath id="clip0_149_208">
<rect width="28" height="28" fill="white"/>
</clipPath>
</defs>
</svg>
